<?xml version="1.0" encoding="UTF-8"?>
<svg id="Layer_2" data-name="Layer 2" xmlns="http://www.w3.org/2000/svg" viewBox="0 0 421.23 561.46">
  <defs>
    <style>
      .cls-1 {
        fill: #010101;
      }

      .cls-2 {
        fill: #ffffff;
      }

      .cls-3 {
        fill: #b60303;
      }

      .cls-4 {
        fill: #b40000;
      }

      .cls-5 {
        fill: #fe0101;
      }

      .cls-6 {
        fill: #ffffff;
      }

      .cls-7 {
        fill: #020101;
      }

      .cls-8 {
        fill: #ffffff;
      }

      .cls-9 {
        fill: #020202;
      }

      .cls-10 {
        fill: #040202;
      }

      .cls-11 {
        fill: #ffffff;
      }
    </style>
  </defs>
  <g id="Layer_1-2" data-name="Layer 1">
    <g>
      <path d="M386.13,245.5v35.23s-35.1,0-35.1,0v35.1s35.09,0,35.09,0v35.09s35.1,0,35.1,0v70.17s-35.1,0-35.1,0v70.18s-34.96,0-34.96,0l-.13-70.2-35.09.02-.02,35.08h-139.91s-70.69.02-70.69.02l-.04-35.06-35.06-.17v-35.06s0-35.11,0-35.11l35.1.12v-35.08s-35.1-.12-35.1-.12v-35.09s70.2.05,70.2.05v35.16s140.4,0,140.4,0l.03-35.09h70.2s0-35.09,0-35.09l35.1-.14ZM351.03,315.71h-35.1v35.21h35.1v-35.21ZM351.03,350.91v70.18h35.21v-70.18h-35.21Z"/>
      <polygon class="cls-1" points="280.83 526.24 280.82 561.46 140.42 561.46 140.42 526.25 280.83 526.24"/>
      <polygon class="cls-9" points="70.22 420.96 70.22 456.09 70.21 491.27 105.4 491.26 140.54 491.29 140.42 526.25 70.2 526.38 70.22 491.27 35.1 491.28 35.52 421.09 70.22 420.96"/>
      <polygon class="cls-3" points="386.12 105.22 351.14 105.28 351.04 70.19 280.83 70.2 280.83 35.1 245.83 35.08 245.79 .02 280.82 0 280.83 35.1 351.02 35.09 351.03 70.18 386.13 70.19 386.12 105.22"/>
      <polygon class="cls-9" points="70.22 315.71 70.21 350.8 34.95 350.91 35.11 315.83 70.22 315.71"/>
      <polygon class="cls-9" points="34.95 350.91 35.11 385.61 35.52 421.09 0 421.1 0 350.92 34.95 350.91"/>
      <polygon class="cls-10" points="245.79 .02 245.83 35.08 210.78 35.12 175.63 35.11 175.57 .03 245.79 .02"/>
      <polygon class="cls-7" points="35.1 175.4 35.22 245.65 0 245.65 0 175.46 35.1 175.4"/>
      <polygon class="cls-7" points="421.23 175.4 421.23 245.64 386.13 245.5 386.13 175.46 421.23 175.4"/>
      <polygon class="cls-9" points="351.16 491.27 351.03 526.37 280.83 526.24 280.83 491.27 351.16 491.27"/>
      <polygon class="cls-5" points="105.38 35.11 105.5 70.19 70.22 70.2 70.33 105.29 35.11 105.29 35.11 70.21 70.21 70.19 70.22 35.11 105.38 35.11"/>
      <polygon class="cls-9" points="70.22 280.62 35.11 280.74 35.22 245.65 70.21 245.64 70.22 280.62"/>
      <polygon class="cls-4" points="140.42 34.99 140.42 70.08 105.5 70.19 105.38 35.11 140.42 34.99"/>
      <polygon class="cls-3" points="421.23 175.4 386.13 175.46 386.13 140.24 421.23 140.36 421.23 175.4"/>
      <polygon class="cls-3" points="35.24 140.37 35.1 175.4 0 175.46 .01 140.36 35.24 140.37"/>
      <polygon points="386.12 105.22 386.13 140.24 351.03 140.37 351.14 105.28 386.12 105.22"/>
      <polygon class="cls-7" points="70.33 105.29 70.21 140.38 35.24 140.37 35.11 105.29 70.33 105.29"/>
      <polygon class="cls-5" points="175.57 .03 175.63 35.11 140.42 34.99 140.42 .02 175.57 .03"/>
      <polygon class="cls-8" points="351.14 105.28 351.03 140.37 386.13 140.24 386.13 175.46 386.13 245.5 351.03 245.64 351.04 280.73 280.84 280.73 280.81 315.82 140.41 315.82 140.41 280.67 140.42 245.64 210.62 245.64 210.63 210.55 245.72 210.53 245.72 140.38 210.61 140.38 210.78 105.29 245.72 105.29 245.85 70.17 280.83 70.19 280.82 105.29 351.14 105.28"/>
      <polygon class="cls-11" points="175.63 70.2 175.52 105.29 210.78 105.29 210.61 140.38 245.72 140.38 245.72 210.53 210.63 210.55 210.62 245.64 140.42 245.64 140.41 280.67 70.22 280.62 70.21 245.64 35.22 245.65 35.1 175.4 35.24 140.37 70.21 140.38 70.33 105.29 140.41 105.29 140.42 70.08 175.63 70.2"/>
      <polygon class="cls-6" points="351.16 491.27 280.83 491.27 280.83 526.24 140.42 526.25 140.54 491.29 175.51 491.25 176.01 456.18 315.92 456.18 315.94 421.09 351.03 421.07 351.16 491.27"/>
      <polygon class="cls-2" points="350.81 350.92 315.92 350.92 315.92 315.71 351.03 315.71 351.03 350.31 351.62 350.91 386.24 350.91 386.24 421.09 351.03 421.09 351.03 351.14 350.81 350.92"/>
      <polygon class="cls-2" points="70.21 385.9 70.22 420.96 35.52 421.09 35.11 385.61 70.21 385.9"/>
      <polygon class="cls-2" points="105.4 491.26 70.21 491.27 70.22 456.09 105.32 456.16 105.4 491.26"/>
      <polygon class="cls-7" points="351.14 105.28 280.82 105.29 280.83 70.19 245.85 70.17 245.83 35.08 280.83 35.1 280.83 70.2 351.04 70.19 351.14 105.28"/>
      <polygon class="cls-6" points="245.83 35.08 245.85 70.17 210.81 70.19 210.78 35.12 245.83 35.08"/>
      <polygon class="cls-7" points="105.5 70.19 140.42 70.08 140.41 105.29 70.33 105.29 70.22 70.2 105.5 70.19"/>
      <polygon class="cls-7" points="175.63 35.11 175.63 70.2 140.42 70.08 140.42 34.99 175.63 35.11"/>
      <polygon class="cls-10" points="210.81 70.19 245.85 70.17 245.72 105.29 210.78 105.29 175.52 105.29 175.63 70.2 210.81 70.19"/>
    </g>
  </g>
</svg>