<?xml version="1.0" encoding="UTF-8"?>
<svg id="Layer_2" data-name="Layer 2" xmlns="http://www.w3.org/2000/svg" viewBox="0 0 421.23 421.09">
  <defs>
    <style>
      .cls-1 {
        fill: #010101;
      }

      .cls-2 {
        fill: #ffffff;
      }

      .cls-3 {
        fill: #b40000;
      }

      .cls-4 {
        fill: #ffffff;
      }

      .cls-5 {
        fill: #020101;
      }

      .cls-6 {
        fill: #ff6868;
      }

      .cls-7 {
        fill: #020202;
      }

      .cls-8 {
        fill: #fe0000;
      }

      .cls-9 {
        fill: #f3f3f3;
      }
    </style>
  </defs>
  <g id="Layer_1-2" data-name="Layer 1">
    <g>
      <polygon class="cls-1" points="386.56 280.71 386.13 245.62 351.03 245.51 351.03 210.54 386.13 210.52 386.13 140.24 421.23 140.36 421.23 280.71 386.56 280.71"/>
      <polygon class="cls-5" points="70.21 70.06 70.21 140.35 35.11 140.37 35.1 210.54 70.2 210.55 70.22 245.64 140.41 245.63 140.42 210.55 175.51 210.54 175.53 175.45 245.85 175.46 245.71 210.53 280.82 210.54 280.82 245.64 351.03 245.51 351.03 280.6 245.73 280.58 245.72 210.54 175.51 210.54 175.52 280.6 70.22 280.6 70.22 245.62 35.11 245.63 35.11 280.6 0 280.72 0 140.37 35.11 140.34 35.1 70.18 70.21 70.06"/>
      <polygon class="cls-7" points="280.94 35.09 175.66 35.09 140.53 35.09 140.43 0 280.82 0 280.94 35.09"/>
      <polygon class="cls-1" points="280.96 385.98 280.82 421.08 140.42 421.09 140.53 385.98 280.96 385.98"/>
      <polygon class="cls-5" points="140.53 35.09 140.41 70.19 70.21 70.06 70.22 35.09 140.53 35.09"/>
      <polygon class="cls-7" points="386.13 140.24 351.01 140.36 351.04 70.17 280.82 70.19 280.94 35.09 351.02 35.09 351.03 70.18 386.13 70.19 386.13 140.24"/>
      <polygon class="cls-7" points="351.03 350.77 351.03 385.99 280.96 385.98 280.83 350.89 351.03 350.77"/>
      <polygon class="cls-7" points="105.4 350.88 140.54 350.9 140.53 385.98 70.21 385.99 70.21 350.78 105.4 350.88"/>
      <polygon class="cls-7" points="386.56 280.71 386.13 350.89 351.03 350.77 351.03 280.6 386.56 280.71"/>
      <polygon class="cls-7" points="70.22 280.6 70.22 315.72 70.21 350.78 35.1 350.9 35.11 280.6 70.22 280.6"/>
      <polygon class="cls-3" points="280.94 35.09 280.82 70.19 351.04 70.17 351.01 140.36 386.13 140.24 386.13 210.52 351.03 210.54 351.03 245.51 280.82 245.64 280.82 210.54 245.71 210.53 245.85 175.46 280.82 175.42 280.82 105.26 210.63 105.28 210.61 70.18 175.51 70.18 175.66 35.09 280.94 35.09"/>
      <polygon class="cls-4" points="386.56 280.71 351.03 280.6 351.03 245.51 386.13 245.62 386.56 280.71"/>
      <path class="cls-8" d="M175.66,35.09l-.15,35.08h35.1s.01,35.1.01,35.1h70.2s0,70.14,0,70.14l-34.97.04h-70.32s-.02,35.08-.02,35.08h-35.09s-.01,35.1-.01,35.1h-70.19s-.01-35.08-.01-35.08h-35.1s0-70.18,0-70.18l35.1-.02v-70.29s70.2.13,70.2.13l.12-35.1h35.13ZM175.52,175.41v-35.06s35.1.01,35.1.01v-35.09s-35.11.02-35.11.02l.02-35.11h-35.11s0,35.09,0,35.09h-35.1s-.02,35.1-.02,35.1l35.12-.02-.02,35.12,35.11-.06Z"/>
      <polygon class="cls-2" points="351.03 280.6 351.03 350.77 280.83 350.89 280.96 385.98 140.53 385.98 140.54 350.9 245.72 350.89 245.71 315.76 245.73 280.58 351.03 280.6"/>
      <polygon class="cls-2" points="105.4 350.88 70.21 350.78 70.22 315.72 105.3 315.8 105.4 350.88"/>
      <path class="cls-6" d="M175.52,175.41l-35.11.06.02-35.12-35.12.02.02-35.09h35.1s0-35.09,0-35.09h35.11s-.02,35.1-.02,35.1l35.12-.02v35.09s-35.11-.01-35.11-.01v35.06ZM140.39,105.12l-.03,35.33,35.3.03.03-35.33-35.3-.03Z"/>
      <polygon class="cls-7" points="245.73 280.58 245.71 315.76 175.51 315.82 175.52 280.6 245.73 280.58"/>
      <rect class="cls-9" x="140.36" y="105.15" width="35.33" height="35.3" transform="translate(35.07 280.71) rotate(-89.94)"/>
    </g>
  </g>
</svg>