<?xml version="1.0" encoding="UTF-8"?>
<svg id="Layer_2" data-name="Layer 2" xmlns="http://www.w3.org/2000/svg" viewBox="0 0 421.24 456.18">
  <defs>
    <style>
      .cls-1 {
        fill: #0f0707;
      }

      .cls-2 {
        fill: #ffffff;
      }

      .cls-3 {
        fill: #b40000;
      }

      .cls-4 {
        fill: #fe0101;
      }

      .cls-5 {
        fill: #ffffff;
      }

      .cls-6 {
        fill: #ffffff;
      }

      .cls-7 {
        fill: #020202;
      }

      .cls-8 {
        fill: #1e0000;
      }

      .cls-9 {
        fill: #0c0505;
      }

      .cls-10 {
        fill: #0e0606;
      }

      .cls-11 {
        fill: #ffffff;
      }

      .cls-12 {
        fill: #f3f3f3;
      }

      .cls-13 {
        fill: #0e0505;
      }
    </style>
  </defs>
  <g id="Layer_1-2" data-name="Layer 1">
    <g>
      <polygon class="cls-10" points="280.96 421.09 280.82 456.18 140.42 456.18 140.53 421.09 280.96 421.09"/>
      <polygon class="cls-1" points="280.84 34.97 210.68 35.09 140.42 34.98 140.43 0 280.82 0 280.84 34.97"/>
      <polygon class="cls-10" points="35.13 245.5 35.12 280.54 35.11 315.81 0 315.82 .02 245.52 35.13 245.5"/>
      <polygon class="cls-1" points="70.33 70.18 70.22 105.28 70.21 140.37 35.11 140.25 35.11 70.18 70.33 70.18"/>
      <polygon class="cls-1" points="421.23 210.42 386.15 210.41 386.13 140.35 351.02 140.36 351.04 70.17 280.82 70.19 280.84 34.97 351.02 35.09 351.03 70.18 386.14 70.18 386.13 140.35 421.24 140.37 421.23 210.42"/>
      <polygon class="cls-1" points="386.14 315.68 386.13 385.98 351.04 385.99 351.02 421.09 280.96 421.09 280.83 386 351.03 386.01 351.15 315.82 386.14 315.68"/>
      <polygon class="cls-7" points="105.4 385.99 140.55 386 140.53 421.09 70.21 421.1 70.33 385.99 105.4 385.99"/>
      <polygon class="cls-9" points="35.11 140.25 35.12 210.41 .01 210.41 0 140.36 35.11 140.25"/>
      <polygon class="cls-1" points="70.22 350.82 70.33 385.99 35.11 385.99 35.11 315.81 70.22 315.8 70.22 350.82"/>
      <polygon class="cls-9" points="421.23 245.52 421.24 315.81 386.14 315.68 386.14 245.53 421.23 245.52"/>
      <polygon class="cls-1" points="140.42 34.98 140.41 70.19 70.33 70.18 70.22 35.09 140.42 34.98"/>
      <polygon points="421.23 210.42 421.23 245.52 386.14 245.53 386.15 210.41 421.23 210.42"/>
      <polygon points="35.12 210.41 35.13 245.5 .02 245.52 .01 210.41 35.12 210.41"/>
      <polygon class="cls-2" points="351.15 315.82 351.03 386.01 280.83 386 280.96 421.09 140.53 421.09 140.55 386 210.62 385.99 210.77 350.92 280.95 350.9 315.92 350.89 316.08 315.82 351.15 315.82"/>
      <polygon class="cls-3" points="280.84 34.97 280.82 70.19 351.04 70.17 351.02 140.36 386.13 140.35 386.15 210.41 351.03 210.44 351.03 175.48 316.04 175.47 315.93 140.36 245.73 140.37 245.72 105.28 175.53 105.1 175.59 70.19 210.62 70.17 210.68 35.09 280.84 34.97"/>
      <polygon class="cls-6" points="70.21 245.52 70.21 280.57 35.12 280.54 35.13 245.5 70.21 245.52"/>
      <polygon class="cls-4" points="175.59 70.19 175.53 105.1 175.52 140.37 105.33 140.37 105.44 175.46 70.22 175.45 70.22 210.43 35.12 210.41 35.11 140.25 70.21 140.37 70.22 105.28 140.41 105.29 140.43 70.2 175.59 70.19"/>
      <polygon class="cls-2" points="105.4 385.99 70.33 385.99 70.22 350.82 105.31 350.9 105.4 385.99"/>
      <polygon class="cls-6" points="386.14 245.53 386.14 315.68 351.15 315.82 351.04 245.5 386.14 245.53"/>
      <polygon class="cls-13" points="386.15 210.41 386.14 245.53 351.04 245.5 351.03 210.44 386.15 210.41"/>
      <polygon class="cls-1" points="70.22 210.43 70.21 245.52 35.13 245.5 35.12 210.41 70.22 210.43"/>
      <polygon class="cls-9" points="210.75 175.45 245.86 175.45 245.73 210.56 315.94 210.54 315.92 245.65 351.04 245.5 351.15 315.82 316.08 315.82 280.83 315.82 280.95 350.9 210.77 350.92 140.42 350.91 140.41 315.81 70.21 315.82 70.21 280.57 70.21 245.52 105.31 245.64 105.32 210.54 140.58 210.53 175.52 210.55 175.64 175.46 210.75 175.45"/>
      <polygon class="cls-13" points="316.04 175.47 245.86 175.45 245.73 140.36 210.75 140.37 175.53 140.37 175.64 175.46 140.55 175.47 105.44 175.46 105.33 140.37 175.52 140.37 175.53 105.1 245.72 105.28 245.73 140.37 315.93 140.36 316.04 175.47"/>
      <polygon class="cls-8" points="351.03 210.44 315.93 210.55 316.04 175.47 351.03 175.48 351.03 210.44"/>
      <polygon class="cls-10" points="105.44 175.46 105.31 210.55 70.22 210.43 70.22 175.45 105.44 175.46"/>
      <polygon class="cls-5" points="316.04 175.47 315.93 210.55 351.03 210.44 351.04 245.5 315.92 245.65 315.94 210.54 245.73 210.56 245.86 175.45 316.04 175.47"/>
      <polygon class="cls-11" points="140.55 175.47 140.58 210.53 105.32 210.54 105.31 245.64 70.21 245.52 70.22 210.43 105.31 210.55 105.44 175.46 140.55 175.47"/>
      <polygon class="cls-5" points="175.64 175.46 175.52 210.55 140.58 210.53 140.55 175.47 175.64 175.46"/>
      <polygon class="cls-12" points="210.75 140.37 210.75 175.45 175.64 175.46 175.53 140.37 210.75 140.37"/>
    </g>
  </g>
</svg>
